# xmcd CD database file
#
# Track frame offsets:
#	150
#	15324
#	28528
#	53507
#	68416
#	105312
#	128527
#	147494
#	160530
#	179595
#	192833
#	215012
#
# Disc length: 3162 seconds
#
# Revision: 0
# Processed by: cddbd v1.5.2PL0 Copyright (c) Steve Scherf et al.
# Submitted via: CDex 1.51
#
DISCID=930c580c
DTITLE=Silke Gonska - Solo
DYEAR=2007
DGENRE=Rhythmic Soul
TTITLE0=01 Intro
TTITLE1=02 Fröhliche Regentropfen
TTITLE2=03 Rhythm Gag
TTITLE3=04 I'm So Lonesome I Could Cry (Hank Williams)
TTITLE4=05 Samba Borneo
TTITLE5=06 Alptraum
TTITLE6=07 Du
TTITLE7=08 Ritter Scheerbarts Ampeltanz
TTITLE8=09 Time After Time (Cyndi Lauper)
TTITLE9=10 über Tal Klang
TTITLE10=11 Once I Had A Sweetheart (unknown ca1640)
TTITLE11=12 Outro
EXTD=YEAR: 2007
EXTT0=
EXTT1=
EXTT2=
EXTT3=
EXTT4=
EXTT5=
EXTT6=
EXTT7=
EXTT8=
EXTT9=
EXTT10=
EXTT11=
PLAYORDER=
